Nobile-Rename.ufo
<glyph name="quotesingle" format="1">
  <advance width="822"/>
  <unicode hex="0027"/>
  <outline>
    <contour>
      <point x="286" y="816" type="line"/>
      <point x="494" y="816" type="line"/>
      <point x="590" y="1483" type="line"/>
      <point x="590" y="1578" type="line"/>
      <point x="196" y="1578" type="line"/>
      <point x="196" y="1483" type="line"/>
    </contour>
  </outline>
</glyph>
<glyph name="plus" format="1">
  <advance width="1087"/>
  <unicode hex="002B"/>
  <outline>
    <contour>
      <point x="371" y="67" type="line"/>
      <point x="716" y="67" type="line"/>
      <point x="716" y="424" type="line"/>
      <point x="1070" y="424" type="line"/>
      <point x="1070" y="727" type="line"/>
      <point x="716" y="727" type="line"/>
      <point x="716" y="1080" type="line"/>
      <point x="371" y="1080" type="line"/>
      <point x="371" y="727" type="line"/>
      <point x="17" y="727" type="line"/>
      <point x="17" y="424" type="line"/>
      <point x="371" y="424" type="line"/>
    </contour>
  </outline>
</glyph>
<glyph name="slash" format="1">
  <advance width="988"/>
  <unicode hex="002F"/>
  <outline>
    <contour>
      <point x="95" y="-158" type="line"/>
      <point x="1081" y="1626" type="line"/>
      <point x="874" y="1728" type="line"/>
      <point x="-105" y="-59" type="line"/>
    </contour>
  </outline>
</glyph>
<glyph name="zero" format="1">
  <advance width="1489"/>
  <unicode hex="0030"/>
  <outline>
    <contour>
      <point x="740" y="287" type="curve" smooth="yes"/>
      <point x="589" y="287"/>
      <point x="536" y="396"/>
      <point x="536" y="578" type="curve" smooth="yes"/>
      <point x="536" y="725"/>
      <point x="580" y="874"/>
      <point x="740" y="874" type="curve" smooth="yes"/>
      <point x="902" y="874"/>
      <point x="952" y="744"/>
      <point x="952" y="586" type="curve" smooth="yes"/>
      <point x="952" y="417"/>
      <point x="903" y="287"/>
    </contour>
    <contour>
      <point x="738" y="-18" type="curve" smooth="yes"/>
      <point x="1119" y="-18"/>
      <point x="1335" y="205"/>
      <point x="1335" y="565" type="curve" smooth="yes"/>
      <point x="1335" y="949"/>
      <point x="1139" y="1180"/>
      <point x="740" y="1180" type="curve" smooth="yes"/>
      <point x="358" y="1180"/>
      <point x="150" y="961"/>
      <point x="150" y="576" type="curve" smooth="yes"/>
      <point x="150" y="214"/>
      <point x="353" y="-18"/>
    </contour>
  </outline>
</glyph>
<glyph name="two" format="1">
  <advance width="1206"/>
  <unicode hex="0032"/>
  <outline>
    <contour>
      <point x="166" y="0" type="line"/>
      <point x="1049" y="0" type="line"/>
      <point x="1049" y="307" type="line"/>
      <point x="721" y="307" type="line"/>
      <point x="821" y="398" type="line" smooth="yes"/>
      <point x="1030" y="588"/>
      <point x="1062" y="673"/>
      <point x="1062" y="824" type="curve" smooth="yes"/>
      <point x="1062" y="1079"/>
      <point x="849" y="1180"/>
      <point x="613" y="1180" type="curve" smooth="yes"/>
      <point x="433" y="1180"/>
      <point x="248" y="1126"/>
      <point x="105" y="1041" type="curve"/>
      <point x="206" y="767" type="line"/>
      <point x="309" y="825"/>
      <point x="429" y="869"/>
      <point x="529" y="869" type="curve" smooth="yes"/>
      <point x="612" y="869"/>
      <point x="673" y="838"/>
      <point x="673" y="757" type="curve" smooth="yes"/>
      <point x="673" y="667"/>
      <point x="504" y="542"/>
      <point x="447" y="491" type="curve" smooth="yes"/>
      <point x="166" y="238" type="line"/>
    </contour>
  </outline>
</glyph>
<glyph name="five" format="1">
  <advance width="1245"/>
  <unicode hex="0035"/>
  <outline>
    <contour>
      <point x="590" y="-181" type="curve" smooth="yes"/>
      <point x="883" y="-181"/>
      <point x="1095" y="15"/>
      <point x="1095" y="283" type="curve" smooth="yes"/>
      <point x="1095" y="569"/>
      <point x="920" y="751"/>
      <point x="625" y="751" type="curve" smooth="yes"/>
      <point x="544" y="751"/>
      <point x="499" y="705"/>
      <point x="519" y="722" type="curve"/>
      <point x="519" y="881" type="line"/>
      <point x="1013" y="881" type="line"/>
      <point x="1013" y="1162" type="line"/>
      <point x="186" y="1162" type="line"/>
      <point x="186" y="547" type="line"/>
      <point x="353" y="401" type="line"/>
      <point x="457" y="460"/>
      <point x="529" y="477"/>
      <point x="584" y="477" type="curve" smooth="yes"/>
      <point x="688" y="477"/>
      <point x="747" y="404"/>
      <point x="747" y="287" type="curve" smooth="yes"/>
      <point x="747" y="187"/>
      <point x="679" y="134"/>
      <point x="559" y="134" type="curve" smooth="yes"/>
      <point x="401" y="134"/>
      <point x="296" y="176"/>
      <point x="195" y="204" type="curve"/>
      <point x="156" y="-88" type="line"/>
      <point x="275" y="-141"/>
      <point x="459" y="-181"/>
    </contour>
  </outline>
</glyph>
<glyph name="six" format="1">
  <advance width="1279"/>
  <unicode hex="0036"/>
  <outline>
    <contour>
      <point x="694" y="-78" type="curve" smooth="yes"/>
      <point x="1015" y="-78"/>
      <point x="1195" y="125"/>
      <point x="1195" y="406" type="curve" smooth="yes"/>
      <point x="1195" y="662"/>
      <point x="1046" y="885"/>
      <point x="743" y="885" type="curve" smooth="yes"/>
      <point x="664" y="885"/>
      <point x="568" y="860"/>
      <point x="530" y="838" type="curve"/>
      <point x="611" y="989"/>
      <point x="848" y="1120"/>
      <point x="1026" y="1143" type="curve"/>
      <point x="932" y="1453" type="line"/>
      <point x="533" y="1351"/>
      <point x="103" y="1078"/>
      <point x="125" y="468" type="curve" smooth="yes"/>
      <point x="136" y="166"/>
      <point x="346" y="-78"/>
    </contour>
    <contour>
      <point x="682" y="212" type="curve" smooth="yes"/>
      <point x="522" y="212"/>
      <point x="471" y="315"/>
      <point x="471" y="440" type="curve" smooth="yes"/>
      <point x="471" y="476"/>
      <point x="477" y="513"/>
      <point x="487" y="547" type="curve"/>
      <point x="544" y="586"/>
      <point x="624" y="606"/>
      <point x="687" y="606" type="curve" smooth="yes"/>
      <point x="804" y="606"/>
      <point x="860" y="521"/>
      <point x="860" y="412" type="curve" smooth="yes"/>
      <point x="860" y="292"/>
      <point x="795" y="212"/>
    </contour>
  </outline>
</glyph>
<glyph name="seven" format="1">
  <advance width="1131"/>
  <unicode hex="0037"/>
  <outline>
    <contour>
      <point x="527" y="-259" type="line"/>
      <point x="1121" y="959" type="line"/>
      <point x="1030" y="1162" type="line"/>
      <point x="135" y="1162" type="line"/>
      <point x="135" y="864" type="line"/>
      <point x="654" y="864" type="line"/>
      <point x="180" y="-106" type="line"/>
    </contour>
  </outline>
</glyph>
<glyph name="at" format="1">
  <advance width="1992"/>
  <unicode hex="0040"/>
  <outline>
    <contour>
      <point x="995" y="-157" type="curve" smooth="yes"/>
      <point x="1175.68" y="-157"/>
      <point x="1384.41" y="-119.439"/>
      <point x="1513.59" y="-61.6243" type="curve"/>
      <point x="1453.35" y="117.593" type="line"/>
      <point x="1334.7" y="57.4034"/>
      <point x="1155.8" y="20"/>
      <point x="995" y="20" type="curve" smooth="yes"/>
      <point x="564.43" y="20"/>
      <point x="331" y="264"/>
      <point x="312" y="679" type="curve" smooth="yes"/>
      <point x="290" y="1149"/>
      <point x="611.633" y="1450"/>
      <point x="1068" y="1450" type="curve" smooth="yes"/>
      <point x="1475.39" y="1450"/>
      <point x="1727" y="1221.49"/>
      <point x="1727" y="850" type="curve" smooth="yes"/>
      <point x="1727" y="567.906"/>
      <point x="1639.36" y="402"/>
      <point x="1520" y="402" type="curve" smooth="yes"/>
      <point x="1499.99" y="402"/>
      <point x="1486.22" y="419.857"/>
      <point x="1489.86" y="461.378" type="curve" smooth="yes"/>
      <point x="1542.86" y="1069.39" type="line" smooth="yes"/>
      <point x="1553.86" y="1196.44"/>
      <point x="1395.53" y="1271"/>
      <point x="1160" y="1271" type="curve" smooth="yes"/>
      <point x="747.366" y="1271"/>
      <point x="454" y="1011"/>
      <point x="486" y="606" type="curve" smooth="yes"/>
      <point x="504" y="377"/>
      <point x="634.151" y="226"/>
      <point x="868" y="226" type="curve" smooth="yes"/>
      <point x="1103.9" y="226"/>
      <point x="1295.61" y="394.784"/>
      <point x="1371.73" y="658.207" type="curve"/>
      <point x="1323.11" y="664.285" type="line"/>
      <point x="1319.75" y="605.433"/>
      <point x="1308" y="505.473"/>
      <point x="1308" y="433" type="curve" smooth="yes"/>
      <point x="1308" y="318.569"/>
      <point x="1382.94" y="241"/>
      <point x="1500" y="241" type="curve" smooth="yes"/>
      <point x="1765.83" y="241"/>
      <point x="1929" y="482.266"/>
      <point x="1929" y="850" type="curve" smooth="yes"/>
      <point x="1929" y="1323.53"/>
      <point x="1594.6" y="1626"/>
      <point x="1068" y="1626" type="curve" smooth="yes"/>
      <point x="471.445" y="1626"/>
      <point x="62" y="1241"/>
      <point x="94" y="656" type="curve" smooth="yes"/>
      <point x="122" y="153"/>
      <point x="444.239" y="-157"/>
    </contour>
    <contour>
      <point x="894.86" y="397" type="curve" smooth="yes"/>
      <point x="772.486" y="396.15"/>
      <point x="712" y="479"/>
      <point x="697" y="622" type="curve" smooth="yes"/>
      <point x="665" y="928"/>
      <point x="874.33" y="1114.14"/>
      <point x="1159.24" y="1116" type="curve" smooth="yes"/>
      <point x="1211.3" y="1116"/>
      <point x="1281.79" y="1103.67"/>
      <point x="1350.72" y="1082.33" type="curve"/>
      <point x="1301.99" y="657.46"/>
      <point x="1121.02" y="397.88"/>
    </contour>
  </outline>
</glyph>
<glyph name="A" format="1">
  <advance width="1543"/>
  <unicode hex="0041"/>
  <outline>
    <contour>
      <point x="26" y="0" type="line"/>
      <point x="452" y="0" type="line"/>
      <point x="559" y="336" type="line"/>
      <point x="984" y="336" type="line"/>
      <point x="1091" y="0" type="line"/>
      <point x="1517" y="0" type="line"/>
      <point x="996" y="1578" type="line"/>
      <point x="548" y="1578" type="line"/>
    </contour>
    <contour>
      <point x="611" y="543" type="line"/>
      <point x="780" y="1095" type="line"/>
      <point x="932" y="543" type="line"/>
    </contour>
    <contour>
      <point x="778" y="1578" type="move" name="top"/>
    </contour>
    <contour>
      <point x="1298" y="0" type="move" name="ogonek"/>
    </contour>
  </outline>
</glyph>
<glyph name="B" format="1">
  <advance width="1519"/>
  <unicode hex="0042"/>
  <outline>
    <contour>
      <point x="176" y="0" type="line"/>
      <point x="752" y="0" type="line" smooth="yes"/>
      <point x="1117" y="0"/>
      <point x="1427" y="71"/>
      <point x="1427" y="471" type="curve" smooth="yes"/>
      <point x="1427" y="718"/>
      <point x="1246" y="787"/>
      <point x="1036" y="822" type="curve"/>
      <point x="1204" y="835"/>
      <point x="1369" y="966"/>
      <point x="1379" y="1149" type="curve" smooth="yes"/>
      <point x="1401" y="1556"/>
      <point x="1043" y="1578"/>
      <point x="729" y="1578" type="curve" smooth="yes"/>
      <point x="176" y="1578" type="line"/>
    </contour>
    <contour>
      <point x="612" y="289" type="line"/>
      <point x="612" y="672" type="line"/>
      <point x="701" y="672" type="line" smooth="yes"/>
      <point x="865" y="672"/>
      <point x="1001" y="662"/>
      <point x="1001" y="461" type="curve" smooth="yes"/>
      <point x="1001" y="263"/>
      <point x="822" y="289"/>
      <point x="690" y="289" type="curve" smooth="yes"/>
    </contour>
    <contour>
      <point x="612" y="937" type="line"/>
      <point x="612" y="1289" type="line"/>
      <point x="737" y="1289" type="line" smooth="yes"/>
      <point x="868" y="1289"/>
      <point x="995" y="1289"/>
      <point x="995" y="1121" type="curve" smooth="yes"/>
      <point x="995" y="967"/>
      <point x="818" y="937"/>
      <point x="703" y="937" type="curve" smooth="yes"/>
    </contour>
    <contour>
      <point x="704" y="1578" type="move" name="top"/>
    </contour>
  </outline>
</glyph>
<glyph name="J" format="1">
  <advance width="927"/>
  <unicode hex="004A"/>
  <outline>
    <contour>
      <point x="90" y="-387" type="line"/>
      <point x="497" y="-375"/>
      <point x="751" y="-212"/>
      <point x="751" y="255" type="curve" smooth="yes"/>
      <point x="751" y="1578" type="line"/>
      <point x="313" y="1578" type="line"/>
      <point x="313" y="261" type="line" smooth="yes"/>
      <point x="313" y="-5"/>
      <point x="211" y="-65"/>
      <point x="-2" y="-99" type="curve"/>
    </contour>
    <contour>
      <point x="547" y="1578" type="move" name="top"/>
    </contour>
  </outline>
</glyph>
<glyph name="K" format="1">
  <advance width="1549"/>
  <unicode hex="004B"/>
  <outline>
    <contour>
      <point x="176" y="0" type="line"/>
      <point x="612" y="0" type="line"/>
      <point x="612" y="675" type="line"/>
      <point x="630" y="675" type="line"/>
      <point x="1062" y="0" type="line"/>
      <point x="1578" y="0" type="line"/>
      <point x="1051" y="780" type="line"/>
      <point x="1548" y="1578" type="line"/>
      <point x="1065" y="1578" type="line"/>
      <point x="636" y="890" type="line"/>
      <point x="612" y="890" type="line"/>
      <point x="612" y="1578" type="line"/>
      <point x="176" y="1578" type="line"/>
    </contour>
    <contour>
      <point x="804" y="1578" type="move" name="top"/>
    </contour>
    <contour>
      <point x="821" y="0" type="move" name="bot"/>
    </contour>
  </outline>
</glyph>
<glyph name="L" format="1">
  <advance width="1207"/>
  <unicode hex="004C"/>
  <outline>
    <contour>
      <point x="176" y="0" type="line"/>
      <point x="1186" y="0" type="line"/>
      <point x="1186" y="316" type="line"/>
      <point x="611" y="316" type="line"/>
      <point x="611" y="1578" type="line"/>
      <point x="176" y="1578" type="line"/>
    </contour>
    <contour>
      <point x="591" y="1162" type="move" name="caron.alt"/>
    </contour>
    <contour>
      <point x="434" y="1578" type="move" name="top"/>
    </contour>
    <contour>
      <point x="402" y="933" type="move" name="mid"/>
    </contour>
    <contour>
      <point x="681" y="0" type="move" name="bot"/>
    </contour>
  </outline>
</glyph>
<glyph name="M" format="1">
  <advance width="2076"/>
  <unicode hex="004D"/>
  <outline>
    <contour>
      <point x="176" y="0" type="line"/>
      <point x="533" y="0" type="line"/>
      <point x="533" y="963" type="line"/>
      <point x="837" y="0" type="line"/>
      <point x="1250" y="0" type="line"/>
      <point x="1543" y="963" type="line"/>
      <point x="1543" y="0" type="line"/>
      <point x="1900" y="0" type="line"/>
      <point x="1900" y="1578" type="line"/>
      <point x="1404" y="1578" type="line"/>
      <point x="1029" y="485" type="line"/>
      <point x="670" y="1578" type="line"/>
      <point x="176" y="1578" type="line"/>
    </contour>
    <contour>
      <point x="1044" y="1578" type="move" name="top"/>
    </contour>
  </outline>
</glyph>
<glyph name="N" format="1">
  <advance width="1714"/>
  <unicode hex="004E"/>
  <outline>
    <contour>
      <point x="176" y="0" type="line"/>
      <point x="565" y="0" type="line"/>
      <point x="565" y="946" type="line"/>
      <point x="1111" y="0" type="line"/>
      <point x="1538" y="0" type="line"/>
      <point x="1538" y="1578" type="line"/>
      <point x="1151" y="1578" type="line"/>
      <point x="1151" y="652" type="line"/>
      <point x="621" y="1578" type="line"/>
      <point x="176" y="1578" type="line"/>
    </contour>
    <contour>
      <point x="884" y="1578" type="move" name="top"/>
    </contour>
    <contour>
      <point x="921" y="0" type="move" name="bot"/>
    </contour>
  </outline>
</glyph>
<glyph name="O" format="1">
  <advance width="1670"/>
  <unicode hex="004F"/>
  <outline>
    <contour>
      <point x="836" y="277" type="curve" smooth="yes"/>
      <point x="608" y="277"/>
      <point x="538" y="492"/>
      <point x="538" y="791" type="curve" smooth="yes"/>
      <point x="538" y="1090"/>
      <point x="608" y="1296"/>
      <point x="836" y="1296" type="curve" smooth="yes"/>
      <point x="1061" y="1296"/>
      <point x="1132" y="1092"/>
      <point x="1132" y="791" type="curve" smooth="yes"/>
      <point x="1132" y="501"/>
      <point x="1068" y="277"/>
    </contour>
    <contour>
      <point x="836" y="-22" type="curve" smooth="yes"/>
      <point x="1328" y="-22"/>
      <point x="1572" y="261"/>
      <point x="1572" y="791" type="curve" smooth="yes"/>
      <point x="1572" y="1329"/>
      <point x="1311" y="1602"/>
      <point x="836" y="1602" type="curve" smooth="yes"/>
      <point x="358" y="1602"/>
      <point x="98" y="1342"/>
      <point x="98" y="791" type="curve" smooth="yes"/>
      <point x="98" y="261"/>
      <point x="342" y="-22"/>
    </contour>
    <contour>
      <point x="852" y="1578" type="move" name="top"/>
    </contour>
    <contour>
      <point x="902" y="0" type="move" name="ogonek"/>
    </contour>
  </outline>
</glyph>
<glyph name="T" format="1">
  <advance width="1172"/>
  <unicode hex="0054"/>
  <outline>
    <contour>
      <point x="371" y="0" type="line"/>
      <point x="810" y="0" type="line"/>
      <point x="810" y="1261" type="line"/>
      <point x="1190" y="1261" type="line"/>
      <point x="1190" y="1578" type="line"/>
      <point x="-18" y="1578" type="line"/>
      <point x="-18" y="1261" type="line"/>
      <point x="371" y="1261" type="line"/>
    </contour>
    <contour>
      <point x="616" y="1578" type="move" name="top"/>
    </contour>
    <contour>
      <point x="603" y="0" type="move" name="bot"/>
    </contour>
    <contour>
      <point x="602" y="842" type="move" name="mid"/>
    </contour>
  </outline>
</glyph>
<glyph name="W" format="1">
  <advance width="2188"/>
  <unicode hex="0057"/>
  <outline>
    <contour>
      <point x="395" y="0" type="line"/>
      <point x="835" y="0" type="line"/>
      <point x="1094" y="973" type="line"/>
      <point x="1330" y="0" type="line"/>
      <point x="1778" y="0" type="line"/>
      <point x="2114" y="1578" type="line"/>
      <point x="1710" y="1578" type="line"/>
      <point x="1526" y="558" type="line"/>
      <point x="1294" y="1469" type="line"/>
      <point x="894" y="1469" type="line"/>
      <point x="649" y="558" type="line"/>
      <point x="478" y="1578" type="line"/>
      <point x="74" y="1578" type="line"/>
    </contour>
    <contour>
      <point x="1105" y="1578" type="move" name="top"/>
    </contour>
  </outline>
</glyph>
<glyph name="X" format="1">
  <advance width="1507"/>
  <unicode hex="0058"/>
  <outline>
    <contour>
      <point x="32" y="0" type="line"/>
      <point x="459" y="0" type="line"/>
      <point x="744" y="457" type="line"/>
      <point x="1017" y="0" type="line"/>
      <point x="1475" y="0" type="line"/>
      <point x="995" y="792" type="line"/>
      <point x="1475" y="1578" type="line"/>
      <point x="1050" y="1578" type="line"/>
      <point x="772" y="1100" type="line"/>
      <point x="487" y="1578" type="line"/>
      <point x="32" y="1578" type="line"/>
      <point x="510" y="796" type="line"/>
    </contour>
  </outline>
</glyph>
<glyph name="Y" format="1">
  <advance width="1436"/>
  <unicode hex="0059"/>
  <outline>
    <contour>
      <point x="497" y="0" type="line"/>
      <point x="923" y="0" type="line"/>
      <point x="923" y="583" type="line"/>
      <point x="1428" y="1578" type="line"/>
      <point x="1000" y="1578" type="line"/>
      <point x="720" y="997" type="line"/>
      <point x="444" y="1578" type="line"/>
      <point x="8" y="1578" type="line"/>
      <point x="497" y="583" type="line"/>
    </contour>
    <contour>
      <point x="729" y="1578" type="move" name="top"/>
    </contour>
  </outline>
</glyph>
<glyph name="Z" format="1">
  <advance width="1245"/>
  <unicode hex="005A"/>
  <outline>
    <contour>
      <point x="90" y="0" type="line"/>
      <point x="1177" y="0" type="line"/>
      <point x="1177" y="316" type="line"/>
      <point x="566" y="316" type="line"/>
      <point x="1167" y="1329" type="line"/>
      <point x="1167" y="1578" type="line"/>
      <point x="95" y="1578" type="line"/>
      <point x="95" y="1257" type="line"/>
      <point x="693" y="1257" type="line"/>
      <point x="90" y="278" type="line"/>
    </contour>
    <contour>
      <point x="614" y="1578" type="move" name="top"/>
    </contour>
  </outline>
</glyph>
<glyph name="bracketleft" format="1">
  <advance width="1059"/>
  <unicode hex="005B"/>
  <outline>
    <contour>
      <point x="176" y="-122" type="line"/>
      <point x="959" y="-122" type="line"/>
      <point x="959" y="86" type="line"/>
      <point x="562" y="86" type="line"/>
      <point x="562" y="1578" type="line"/>
      <point x="959" y="1578" type="line"/>
      <point x="959" y="1786" type="line"/>
      <point x="176" y="1786" type="line"/>
    </contour>
  </outline>
</glyph>
<glyph name="grave" format="1">
  <advance width="1029"/>
  <unicode hex="0060"/>
  <outline>
    <contour>
      <point x="565" y="1345" type="line"/>
      <point x="699" y="1514" type="line"/>
      <point x="191" y="1958" type="line"/>
      <point x="-18" y="1684" type="line"/>
    </contour>
    <contour>
      <point x="533" y="1162" type="move" name="_top"/>
    </contour>
  </outline>
</glyph>
<glyph name="e" format="1">
  <advance width="1256"/>
  <unicode hex="0065"/>
  <outline>
    <contour>
      <point x="720" y="-18" type="curve" smooth="yes"/>
      <point x="863" y="-18"/>
      <point x="1018" y="12"/>
      <point x="1155" y="97" type="curve"/>
      <point x="1067" y="334" type="line"/>
      <point x="974" y="287"/>
      <point x="881" y="260"/>
      <point x="764" y="260" type="curve" smooth="yes"/>
      <point x="642" y="260"/>
      <point x="513" y="303"/>
      <point x="500" y="478" type="curve"/>
      <point x="1155" y="478" type="line"/>
      <point x="1163" y="595" type="line" smooth="yes"/>
      <point x="1189" y="975"/>
      <point x="998" y="1180"/>
      <point x="693" y="1180" type="curve" smooth="yes"/>
      <point x="326" y="1180"/>
      <point x="82" y="959"/>
      <point x="82" y="573" type="curve" smooth="yes"/>
      <point x="82" y="199"/>
      <point x="309" y="-18"/>
    </contour>
    <contour>
      <point x="505" y="699" type="line"/>
      <point x="505" y="844"/>
      <point x="576" y="921"/>
      <point x="681" y="921" type="curve" smooth="yes"/>
      <point x="759" y="921"/>
      <point x="825" y="862"/>
      <point x="825" y="733" type="curve" smooth="yes"/>
      <point x="825" y="699" type="line"/>
    </contour>
    <contour>
      <point x="702" y="1162" type="move" name="top"/>
    </contour>
    <contour>
      <point x="772" y="0" type="move" name="ogonek"/>
    </contour>
    <contour>
      <point x="709" y="0" type="move" name="bot"/>
    </contour>
  </outline>
</glyph>
<glyph name="i" format="1">
  <advance width="731"/>
  <unicode hex="0069"/>
  <outline>
    <contour>
      <point x="165" y="0" type="line"/>
      <point x="577" y="0" type="line"/>
      <point x="577" y="1162" type="line"/>
      <point x="165" y="1162" type="line"/>
    </contour>
    <contour>
      <point x="370" y="1355" type="curve" smooth="yes"/>
      <point x="497" y="1355"/>
      <point x="601" y="1451"/>
      <point x="601" y="1569" type="curve" smooth="yes"/>
      <point x="601" y="1696"/>
      <point x="495" y="1784"/>
      <point x="370" y="1784" type="curve" smooth="yes"/>
      <point x="244" y="1784"/>
      <point x="146" y="1696"/>
      <point x="146" y="1569" type="curve" smooth="yes"/>
      <point x="146" y="1456"/>
      <point x="240" y="1355"/>
    </contour>
  </outline>
</glyph>
<glyph name="k" format="1">
  <advance width="1402"/>
  <unicode hex="006B"/>
  <outline>
    <contour>
      <point x="151" y="1.91895e-05" type="line"/>
      <point x="563" y="1.91895e-05" type="line"/>
      <point x="563" y="412.412" type="line"/>
      <point x="647" y="489" type="line"/>
      <point x="950" y="0.000123389" type="line"/>
      <point x="1414" y="0.000123389" type="line"/>
      <point x="932" y="668" type="line"/>
      <point x="1385" y="1162" type="line"/>
      <point x="914" y="1162" type="line"/>
      <point x="563" y="751.089" type="line"/>
      <point x="563" y="1647" type="line"/>
      <point x="151" y="1578" type="line"/>
    </contour>
    <contour>
      <point x="872" y="1162" type="move" name="top"/>
    </contour>
    <contour>
      <point x="769" y="0" type="move" name="bot"/>
    </contour>
  </outline>
</glyph>
<glyph name="o" format="1">
  <advance width="1350"/>
  <unicode hex="006F"/>
  <outline>
    <contour>
      <point x="675" y="262" type="curve" smooth="yes"/>
      <point x="556" y="262"/>
      <point x="497" y="376"/>
      <point x="497" y="584" type="curve" smooth="yes"/>
      <point x="497" y="791"/>
      <point x="556" y="900"/>
      <point x="675" y="900" type="curve" smooth="yes"/>
      <point x="794" y="900"/>
      <point x="854" y="791"/>
      <point x="854" y="584" type="curve" smooth="yes"/>
      <point x="854" y="376"/>
      <point x="794" y="262"/>
    </contour>
    <contour>
      <point x="675" y="-18" type="curve" smooth="yes"/>
      <point x="1035" y="-18"/>
      <point x="1268" y="192"/>
      <point x="1268" y="582" type="curve" smooth="yes"/>
      <point x="1268" y="978"/>
      <point x="1029" y="1180"/>
      <point x="675" y="1180" type="curve" smooth="yes"/>
      <point x="321" y="1180"/>
      <point x="82" y="978"/>
      <point x="82" y="582" type="curve" smooth="yes"/>
      <point x="82" y="192"/>
      <point x="315" y="-18"/>
    </contour>
    <contour>
      <point x="662" y="1162" type="move" name="top"/>
    </contour>
    <contour>
      <point x="748" y="0" type="move" name="ogonek"/>
    </contour>
  </outline>
</glyph>
<glyph name="p" format="1">
  <advance width="1389"/>
  <unicode hex="0070"/>
  <outline>
    <contour>
      <point x="146" y="-516" type="line"/>
      <point x="560" y="-456" type="line"/>
      <point x="560" y="54.0582" type="line"/>
      <point x="633.616" y="10.6806"/>
      <point x="718.895" y="-17.9999"/>
      <point x="814" y="-17.9999" type="curve" smooth="yes"/>
      <point x="1060" y="-17.9999"/>
      <point x="1307" y="168"/>
      <point x="1307" y="588" type="curve" smooth="yes"/>
      <point x="1307" y="978"/>
      <point x="1121" y="1180"/>
      <point x="864" y="1180" type="curve" smooth="yes"/>
      <point x="725.354" y="1180"/>
      <point x="595.775" y="1139.41"/>
      <point x="484.058" y="1044.06" type="curve"/>
      <point x="432" y="1162" type="line"/>
      <point x="146" y="1162" type="line"/>
    </contour>
    <contour>
      <point x="687" y="234" type="curve" smooth="yes"/>
      <point x="644.308" y="234"/>
      <point x="601.376" y="249.782"/>
      <point x="560" y="276.662" type="curve"/>
      <point x="560" y="872" type="line"/>
      <point x="618.468" y="911.49"/>
      <point x="670.064" y="924"/>
      <point x="723" y="924" type="curve" smooth="yes"/>
      <point x="824" y="924"/>
      <point x="895" y="848"/>
      <point x="895" y="585" type="curve" smooth="yes"/>
      <point x="895" y="305"/>
      <point x="779" y="234"/>
    </contour>
    <contour>
      <point x="782" y="1162" type="move" name="top"/>
    </contour>
  </outline>
</glyph>
<glyph name="braceleft" format="1">
  <advance width="1101"/>
  <unicode hex="007B"/>
  <outline>
    <contour>
      <point x="989" y="-264" type="curve"/>
      <point x="989" y="-1" type="line"/>
      <point x="791" y="20"/>
      <point x="751" y="25"/>
      <point x="751" y="247" type="curve"/>
      <point x="748" y="605"/>
      <point x="626" y="668"/>
      <point x="505" y="707" type="curve"/>
      <point x="626" y="745"/>
      <point x="748" y="809"/>
      <point x="751" y="1167" type="curve"/>
      <point x="751" y="1385"/>
      <point x="791" y="1394"/>
      <point x="989" y="1415" type="curve"/>
      <point x="989" y="1678" type="line"/>
      <point x="485" y="1678"/>
      <point x="289" y="1595"/>
      <point x="289" y="1139" type="curve"/>
      <point x="289" y="910"/>
      <point x="289" y="850"/>
      <point x="74" y="812" type="curve"/>
      <point x="74" y="601" type="line"/>
      <point x="289" y="565"/>
      <point x="289" y="505"/>
      <point x="289" y="275" type="curve"/>
      <point x="289" y="-181"/>
      <point x="485" y="-264"/>
    </contour>
  </outline>
</glyph>
<glyph name="braceright" format="1">
  <advance width="1101"/>
  <unicode hex="007D"/>
  <outline>
    <contour>
      <point x="112" y="-264" type="line"/>
      <point x="616" y="-264"/>
      <point x="812" y="-181"/>
      <point x="812" y="275" type="curve"/>
      <point x="812" y="505"/>
      <point x="812" y="565"/>
      <point x="1027" y="601" type="curve"/>
      <point x="1027" y="812" type="line"/>
      <point x="812" y="850"/>
      <point x="812" y="910"/>
      <point x="812" y="1139" type="curve"/>
      <point x="812" y="1595"/>
      <point x="616" y="1678"/>
      <point x="112" y="1678" type="curve"/>
      <point x="112" y="1415" type="line"/>
      <point x="310" y="1394"/>
      <point x="350" y="1385"/>
      <point x="350" y="1167" type="curve"/>
      <point x="353" y="809"/>
      <point x="475" y="745"/>
      <point x="596" y="707" type="curve"/>
      <point x="475" y="668"/>
      <point x="353" y="605"/>
      <point x="350" y="247" type="curve"/>
      <point x="350" y="25"/>
      <point x="310" y="20"/>
      <point x="112" y="-1" type="curve"/>
    </contour>
  </outline>
</glyph>
<glyph name="cent" format="1">
  <advance width="1127"/>
  <unicode hex="00A2"/>
  <outline>
    <contour>
      <point x="618" y="-205" type="line"/>
      <point x="756" y="-205" type="line"/>
      <point x="756" y="1440" type="line"/>
      <point x="618" y="1440" type="line"/>
    </contour>
    <component base="c" yOffset="57" yScale="0.95"/>
  </outline>
</glyph>
<glyph name="yen" format="1">
  <advance width="1436"/>
  <unicode hex="00A5"/>
  <outline>
    <contour>
      <point x="1428" y="1578" type="line"/>
      <point x="1000" y="1578" type="line"/>
      <point x="720" y="967" type="line"/>
      <point x="444" y="1578" type="line"/>
      <point x="8" y="1578" type="line"/>
      <point x="379" y="803" type="line"/>
      <point x="168" y="803" type="line"/>
      <point x="168" y="677" type="line"/>
      <point x="431" y="677" type="line"/>
      <point x="497" y="513" type="line"/>
      <point x="168" y="513" type="line"/>
      <point x="168" y="385" type="line"/>
      <point x="497" y="385" type="line"/>
      <point x="497" y="0" type="line"/>
      <point x="923" y="0" type="line"/>
      <point x="923" y="385" type="line"/>
      <point x="1245" y="385" type="line"/>
      <point x="1245" y="513" type="line"/>
      <point x="923" y="513" type="line"/>
      <point x="985" y="677" type="line"/>
      <point x="1245" y="677" type="line"/>
      <point x="1245" y="803" type="line"/>
      <point x="1039" y="803" type="line"/>
    </contour>
  </outline>
</glyph>
<glyph name="section" format="1">
  <advance width="1200"/>
  <unicode hex="00A7"/>
  <outline>
    <contour>
      <point x="596" y="-116" type="curve" smooth="yes"/>
      <point x="806" y="-116"/>
      <point x="1049" y="-32"/>
      <point x="1049" y="229" type="curve" smooth="yes"/>
      <point x="1049" y="307"/>
      <point x="1030" y="435"/>
      <point x="889" y="500" type="curve"/>
      <point x="1006" y="546"/>
      <point x="1047" y="646"/>
      <point x="1047" y="742" type="curve" smooth="yes"/>
      <point x="1047" y="865"/>
      <point x="1010" y="959"/>
      <point x="718" y="1072" type="curve" smooth="yes"/>
      <point x="553" y="1136" type="line" smooth="yes"/>
      <point x="475" y="1166"/>
      <point x="457" y="1194"/>
      <point x="457" y="1226" type="curve" smooth="yes"/>
      <point x="457" y="1284"/>
      <point x="499" y="1323"/>
      <point x="621" y="1323" type="curve" smooth="yes"/>
      <point x="724" y="1323"/>
      <point x="853" y="1291"/>
      <point x="928" y="1254" type="curve"/>
      <point x="1014" y="1477" type="line"/>
      <point x="881" y="1554"/>
      <point x="714" y="1596"/>
      <point x="561" y="1596" type="curve" smooth="yes"/>
      <point x="324" y="1596"/>
      <point x="119" y="1496"/>
      <point x="119" y="1270" type="curve" smooth="yes"/>
      <point x="119" y="1160"/>
      <point x="163" y="1060"/>
      <point x="283" y="1009" type="curve"/>
      <point x="132" y="961"/>
      <point x="119" y="820"/>
      <point x="119" y="767" type="curve" smooth="yes"/>
      <point x="119" y="622"/>
      <point x="135" y="535"/>
      <point x="435" y="433" type="curve" smooth="yes"/>
      <point x="627" y="367" type="line" smooth="yes"/>
      <point x="729" y="335"/>
      <point x="740" y="312"/>
      <point x="740" y="260" type="curve" smooth="yes"/>
      <point x="740" y="205"/>
      <point x="711" y="140"/>
      <point x="576" y="140" type="curve" smooth="yes"/>
      <point x="431" y="140"/>
      <point x="289" y="191"/>
      <point x="201" y="249" type="curve"/>
      <point x="113" y="29" type="line"/>
      <point x="239" y="-82"/>
      <point x="494" y="-116"/>
    </contour>
    <contour>
      <point x="579" y="667" type="curve" smooth="yes"/>
      <point x="453" y="667"/>
      <point x="413" y="687"/>
      <point x="413" y="748" type="curve" smooth="yes"/>
      <point x="413" y="811"/>
      <point x="453" y="831"/>
      <point x="579" y="831" type="curve" smooth="yes"/>
      <point x="706" y="831"/>
      <point x="747" y="811"/>
      <point x="747" y="748" type="curve" smooth="yes"/>
      <point x="747" y="687"/>
      <point x="706" y="667"/>
    </contour>
  </outline>
</glyph>
<glyph name="copyright" format="1">
  <advance width="1936"/>
  <unicode hex="00A9"/>
  <outline>
    <contour>
      <point x="967" y="319" type="curve" smooth="yes"/>
      <point x="1109" y="319"/>
      <point x="1271" y="379"/>
      <point x="1344" y="461" type="curve"/>
      <point x="1261" y="587" type="line"/>
      <point x="1193" y="506"/>
      <point x="1080" y="459"/>
      <point x="973" y="459" type="curve" smooth="yes"/>
      <point x="781" y="459"/>
      <point x="663" y="586"/>
      <point x="663" y="808" type="curve" smooth="yes"/>
      <point x="663" y="1025"/>
      <point x="776" y="1152"/>
      <point x="958" y="1156" type="curve"/>
      <point x="1070" y="1160"/>
      <point x="1185" y="1116"/>
      <point x="1251" y="1037" type="curve"/>
      <point x="1348" y="1151" type="line"/>
      <point x="1276" y="1237"/>
      <point x="1107" y="1299"/>
      <point x="955" y="1296" type="curve" smooth="yes"/>
      <point x="660" y="1290"/>
      <point x="473" y="1095"/>
      <point x="473" y="808" type="curve" smooth="yes"/>
      <point x="473" y="514"/>
      <point x="664" y="319"/>
    </contour>
    <contour>
      <point x="968" y="145" type="curve" smooth="yes"/>
      <point x="564" y="145"/>
      <point x="314" y="389"/>
      <point x="314" y="796" type="curve" smooth="yes"/>
      <point x="314" y="1203"/>
      <point x="564" y="1447"/>
      <point x="968" y="1447" type="curve" smooth="yes"/>
      <point x="1372" y="1447"/>
      <point x="1622" y="1203"/>
      <point x="1622" y="796" type="curve" smooth="yes"/>
      <point x="1622" y="389"/>
      <point x="1372" y="145"/>
    </contour>
    <contour>
      <point x="968" y="-15" type="curve" smooth="yes"/>
      <point x="1489" y="-15"/>
      <point x="1822" y="306"/>
      <point x="1822" y="796" type="curve" smooth="yes"/>
      <point x="1822" y="1286"/>
      <point x="1489" y="1607"/>
      <point x="968" y="1607" type="curve" smooth="yes"/>
      <point x="447" y="1607"/>
      <point x="114" y="1286"/>
      <point x="114" y="796" type="curve" smooth="yes"/>
      <point x="114" y="306"/>
      <point x="447" y="-15"/>
    </contour>
  </outline>
</glyph>
<glyph name="guillemotright" format="1">
  <advance width="1801"/>
  <unicode hex="00BB"/>
  <outline>
    <contour>
      <point x="241" y="10" type="line"/>
      <point x="911" y="474" type="line"/>
      <point x="911" y="730" type="line"/>
      <point x="240" y="1193" type="line"/>
      <point x="240" y="856" type="line"/>
      <point x="553" y="601" type="line"/>
      <point x="241" y="348" type="line"/>
    </contour>
    <contour>
      <point x="991" y="10" type="line"/>
      <point x="1661" y="474" type="line"/>
      <point x="1661" y="730" type="line"/>
      <point x="990" y="1193" type="line"/>
      <point x="990" y="856" type="line"/>
      <point x="1303" y="601" type="line"/>
      <point x="991" y="348" type="line"/>
    </contour>
  </outline>
</glyph>
<glyph name="onequarter" format="1">
  <advance width="2238"/>
  <unicode hex="00BC"/>
  <outline>
    <contour>
      <point x="2013" y="-18" type="line"/>
      <point x="2013" y="197" type="line"/>
      <point x="2147" y="197" type="line"/>
      <point x="2147" y="419" type="line"/>
      <point x="2013" y="419" type="line"/>
      <point x="2013" y="1068" type="line"/>
      <point x="1776" y="1130" type="line"/>
      <point x="1274" y="378" type="line"/>
      <point x="1311" y="197" type="line"/>
      <point x="1752" y="197" type="line"/>
      <point x="1752" y="0" type="line"/>
    </contour>
    <contour>
      <point x="318" y="661" type="line"/>
      <point x="610" y="661" type="line"/>
      <point x="610" y="1578" type="line"/>
      <point x="413" y="1624" type="line"/>
      <point x="49" y="1457" type="line"/>
      <point x="138" y="1257" type="line"/>
      <point x="318" y="1346" type="line"/>
    </contour>
    <contour>
      <point x="676" y="-91" type="line"/>
      <point x="1675" y="1580" type="line"/>
      <point x="1464" y="1697" type="line"/>
      <point x="461" y="21" type="line"/>
    </contour>
    <contour>
      <point x="1557" y="417" type="line"/>
      <point x="1752" y="733" type="line"/>
      <point x="1752" y="417" type="line"/>
    </contour>
  </outline>
</glyph>
<glyph name="Thorn" format="1">
  <advance width="1512"/>
  <unicode hex="00DE"/>
  <outline>
    <contour>
      <point x="176" y="0" type="line"/>
      <point x="612" y="0" type="line"/>
      <point x="612" y="338" type="line"/>
      <point x="649" y="338" type="line" smooth="yes"/>
      <point x="1246" y="338"/>
      <point x="1439" y="468"/>
      <point x="1439" y="875" type="curve" smooth="yes"/>
      <point x="1439" y="1180"/>
      <point x="1254" y="1278"/>
      <point x="681" y="1278" type="curve" smooth="yes"/>
      <point x="612" y="1278" type="line"/>
      <point x="612" y="1578" type="line"/>
      <point x="176" y="1578" type="line"/>
    </contour>
    <contour>
      <point x="612" y="614" type="line"/>
      <point x="612" y="1022" type="line"/>
      <point x="663" y="1022" type="line" smooth="yes"/>
      <point x="917" y="1022"/>
      <point x="999" y="977"/>
      <point x="999" y="836" type="curve" smooth="yes"/>
      <point x="999" y="668"/>
      <point x="914" y="614"/>
      <point x="649" y="614" type="curve" smooth="yes"/>
    </contour>
  </outline>
</glyph>
<glyph name="eth" format="1">
  <advance width="1313"/>
  <unicode hex="00F0"/>
  <outline>
    <contour>
      <point x="672" y="-18" type="curve" smooth="yes"/>
      <point x="1004" y="-18"/>
      <point x="1246" y="167"/>
      <point x="1246" y="611" type="curve" smooth="yes"/>
      <point x="1246" y="1038"/>
      <point x="1066" y="1336"/>
      <point x="885" y="1509" type="curve"/>
      <point x="1065" y="1668" type="line"/>
      <point x="950" y="1802" type="line"/>
      <point x="750" y="1620" type="line"/>
      <point x="705" y="1663"/>
      <point x="601" y="1741"/>
      <point x="533" y="1785" type="curve"/>
      <point x="369" y="1589" type="line"/>
      <point x="406" y="1570"/>
      <point x="515" y="1479"/>
      <point x="562" y="1439" type="curve"/>
      <point x="434" y="1321" type="line"/>
      <point x="536" y="1215" type="line"/>
      <point x="675" y="1334" type="line"/>
      <point x="749" y="1270"/>
      <point x="824" y="1161"/>
      <point x="824" y="1033" type="curve"/>
      <point x="761" y="1083"/>
      <point x="679" y="1124"/>
      <point x="536" y="1124" type="curve" smooth="yes"/>
      <point x="331" y="1124"/>
      <point x="95" y="971"/>
      <point x="95" y="603" type="curve" smooth="yes"/>
      <point x="95" y="95"/>
      <point x="392" y="-18"/>
    </contour>
    <contour>
      <point x="664" y="228" type="curve" smooth="yes"/>
      <point x="555" y="228"/>
      <point x="505" y="326"/>
      <point x="505" y="539" type="curve" smooth="yes"/>
      <point x="505" y="769"/>
      <point x="555" y="875"/>
      <point x="664" y="875" type="curve" smooth="yes"/>
      <point x="778" y="875"/>
      <point x="830" y="769"/>
      <point x="830" y="539" type="curve"/>
      <point x="830" y="326"/>
      <point x="778" y="228"/>
    </contour>
  </outline>
</glyph>
<glyph name="divide" format="1">
  <advance width="1370"/>
  <unicode hex="00F7"/>
  <outline>
    <contour>
      <point x="698" y="74" type="curve" smooth="yes"/>
      <point x="834" y="74"/>
      <point x="920" y="157"/>
      <point x="920" y="289" type="curve" smooth="yes"/>
      <point x="920" y="420"/>
      <point x="834" y="503"/>
      <point x="698" y="503" type="curve" smooth="yes"/>
      <point x="565" y="503"/>
      <point x="481" y="420"/>
      <point x="481" y="289" type="curve" smooth="yes"/>
      <point x="481" y="157"/>
      <point x="565" y="74"/>
    </contour>
    <contour>
      <point x="130" y="655" type="line"/>
      <point x="1259" y="655" type="line"/>
      <point x="1259" y="928" type="line"/>
      <point x="130" y="928" type="line"/>
    </contour>
    <contour>
      <point x="698" y="1067" type="curve" smooth="yes"/>
      <point x="831" y="1067"/>
      <point x="915" y="1150"/>
      <point x="915" y="1281" type="curve" smooth="yes"/>
      <point x="915" y="1413"/>
      <point x="831" y="1496"/>
      <point x="698" y="1496" type="curve" smooth="yes"/>
      <point x="562" y="1496"/>
      <point x="476" y="1413"/>
      <point x="476" y="1281" type="curve" smooth="yes"/>
      <point x="476" y="1150"/>
      <point x="562" y="1067"/>
    </contour>
  </outline>
</glyph>
<glyph name="Hbar" format="1">
  <advance width="1677"/>
  <unicode hex="0126"/>
  <outline>
    <contour>
      <point x="36" y="1188" type="line"/>
      <point x="1639" y="1188" type="line"/>
      <point x="1639" y="1378" type="line"/>
      <point x="36" y="1378" type="line"/>
    </contour>
    <component base="H"/>
  </outline>
</glyph>
<glyph name="florin" format="1">
  <advance width="1427"/>
  <unicode hex="0192"/>
  <outline>
    <contour>
      <point x="481" y="0" type="line"/>
      <point x="892" y="0" type="line"/>
      <point x="1000" y="992" type="line"/>
      <point x="1255" y="992" type="line"/>
      <point x="1274" y="1174" type="line"/>
      <point x="1021" y="1174" type="line"/>
      <point x="1040" y="1358"/>
      <point x="1124" y="1359"/>
      <point x="1166" y="1359" type="curve" smooth="yes"/>
      <point x="1220" y="1359"/>
      <point x="1267" y="1362"/>
      <point x="1312" y="1353" type="curve"/>
      <point x="1320" y="1659" type="line"/>
      <point x="1239" y="1665"/>
      <point x="1171" y="1663"/>
      <point x="1097" y="1663" type="curve" smooth="yes"/>
      <point x="830" y="1663"/>
      <point x="644" y="1521"/>
      <point x="607" y="1174" type="curve"/>
      <point x="419" y="1174" type="line"/>
      <point x="400" y="992" type="line"/>
      <point x="588" y="992" type="line"/>
    </contour>
  </outline>
</glyph>
<glyph name="uni0237" format="1">
  <advance width="782"/>
  <unicode hex="0237"/>
  <outline>
    <contour>
      <point x="85" y="-499" type="line"/>
      <point x="400" y="-423"/>
      <point x="573" y="-315"/>
      <point x="573" y="0" type="curve" smooth="yes"/>
      <point x="573" y="1162" type="line"/>
      <point x="161" y="1162" type="line"/>
      <point x="161" y="98" type="line" smooth="yes"/>
      <point x="161" y="-96"/>
      <point x="152" y="-132"/>
      <point x="-51" y="-217" type="curve"/>
    </contour>
    <contour>
      <point x="375" y="1162" type="move" name="top"/>
    </contour>
  </outline>
</glyph>
<glyph name="dotaccent" format="1">
  <advance width="616"/>
  <unicode hex="02D9"/>
  <outline>
    <contour>
      <point x="304" y="1321" type="curve" smooth="yes"/>
      <point x="430" y="1321"/>
      <point x="534" y="1417"/>
      <point x="534" y="1546" type="curve" smooth="yes"/>
      <point x="534" y="1673"/>
      <point x="428" y="1770"/>
      <point x="304" y="1770" type="curve" smooth="yes"/>
      <point x="177" y="1770"/>
      <point x="79" y="1673"/>
      <point x="79" y="1546" type="curve" smooth="yes"/>
      <point x="79" y="1423"/>
      <point x="173" y="1321"/>
    </contour>
    <contour>
      <point x="302" y="1162" type="move" name="_top"/>
    </contour>
  </outline>
</glyph>
<glyph name="uni030F" format="1">
  <advance width="1355"/>
  <unicode hex="030F"/>
  <outline>
    <contour>
      <point x="615" y="1246" type="line"/>
      <point x="780" y="1409" type="line"/>
      <point x="327" y="1943" type="line"/>
      <point x="106" y="1705" type="line"/>
    </contour>
    <contour>
      <point x="1125" y="1229" type="line"/>
      <point x="1305" y="1374" type="line"/>
      <point x="912" y="1953" type="line"/>
      <point x="666" y="1739" type="line"/>
    </contour>
    <contour>
      <point x="837" y="1162" type="move" name="_top"/>
    </contour>
  </outline>
</glyph>
<glyph name="perthousand" format="1">
  <advance width="3342"/>
  <unicode hex="2030"/>
  <outline>
    <contour>
      <point x="2841" y="225" type="curve" smooth="yes"/>
      <point x="2751" y="225"/>
      <point x="2694" y="303"/>
      <point x="2694" y="426" type="curve" smooth="yes"/>
      <point x="2694" y="553"/>
      <point x="2751" y="632"/>
      <point x="2841" y="632" type="curve" smooth="yes"/>
      <point x="2931" y="632"/>
      <point x="2987" y="553"/>
      <point x="2987" y="426" type="curve" smooth="yes"/>
      <point x="2987" y="303"/>
      <point x="2931" y="225"/>
    </contour>
    <contour>
      <point x="2841" y="-18" type="curve" smooth="yes"/>
      <point x="3095" y="-18"/>
      <point x="3255" y="153"/>
      <point x="3255" y="426" type="curve" smooth="yes"/>
      <point x="3255" y="699"/>
      <point x="3095" y="870"/>
      <point x="2841" y="870" type="curve" smooth="yes"/>
      <point x="2586" y="870"/>
      <point x="2426" y="699"/>
      <point x="2426" y="426" type="curve" smooth="yes"/>
      <point x="2426" y="153"/>
      <point x="2586" y="-18"/>
    </contour>
    <component base="percent"/>
  </outline>
</glyph>
<glyph name="fraction" format="1">
  <advance width="1250"/>
  <unicode hex="2044"/>
  <outline>
    <contour>
      <point x="337" y="-18" type="line"/>
      <point x="1250" y="1596" type="line"/>
      <point x="908" y="1596" type="line"/>
      <point x="0" y="-18" type="line"/>
    </contour>
  </outline>
</glyph>
<glyph name="uni2074" format="1">
  <advance width="1158"/>
  <unicode hex="2074"/>
  <outline>
    <contour>
      <point x="623" y="598" type="line"/>
      <point x="884" y="591" type="line"/>
      <point x="884" y="806" type="line"/>
      <point x="1018" y="806" type="line"/>
      <point x="1018" y="1028" type="line"/>
      <point x="884" y="1028" type="line"/>
      <point x="884" y="1667" type="line"/>
      <point x="627" y="1729" type="line"/>
      <point x="115" y="987" type="line"/>
      <point x="152" y="806" type="line"/>
      <point x="623" y="806" type="line"/>
    </contour>
    <contour>
      <point x="408" y="1026" type="line"/>
      <point x="623" y="1362" type="line"/>
      <point x="623" y="1026" type="line"/>
    </contour>
  </outline>
</glyph>
<glyph name="trademark" format="1">
  <advance width="2399"/>
  <unicode hex="2122"/>
  <outline>
    <contour>
      <point x="1077" y="533" type="line"/>
      <point x="1319" y="533" type="line"/>
      <point x="1319" y="1230" type="line"/>
      <point x="1558" y="718" type="line"/>
      <point x="1743" y="718" type="line"/>
      <point x="1991" y="1230" type="line"/>
      <point x="1991" y="533" type="line"/>
      <point x="2233" y="533" type="line"/>
      <point x="2233" y="1578" type="line"/>
      <point x="1966" y="1578" type="line"/>
      <point x="1650" y="996" type="line"/>
      <point x="1352" y="1578" type="line"/>
      <point x="1077" y="1578" type="line"/>
    </contour>
    <contour>
      <point x="378" y="533" type="line"/>
      <point x="652" y="533" type="line"/>
      <point x="652" y="1393" type="line"/>
      <point x="926" y="1393" type="line"/>
      <point x="926" y="1578" type="line"/>
      <point x="98" y="1578" type="line"/>
      <point x="98" y="1393" type="line"/>
      <point x="378" y="1393" type="line"/>
    </contour>
  </outline>
</glyph>
<glyph name="estimated" format="1">
  <advance width="1256"/>
  <unicode hex="212E"/>
  <outline>
    <contour>
      <point x="679" y="146" type="curve" smooth="yes"/>
      <point x="817" y="146"/>
      <point x="992" y="191"/>
      <point x="1086" y="272" type="curve"/>
      <point x="1030" y="396" type="line"/>
      <point x="989" y="362"/>
      <point x="866" y="283"/>
      <point x="712" y="283" type="curve" smooth="yes"/>
      <point x="606" y="283"/>
      <point x="498" y="313"/>
      <point x="430" y="387" type="curve"/>
      <point x="430" y="727" type="line"/>
      <point x="1113" y="727" type="line"/>
      <point x="1119" y="764"/>
      <point x="1124" y="802"/>
      <point x="1124" y="840" type="curve" smooth="yes"/>
      <point x="1124" y="1129"/>
      <point x="978" y="1350"/>
      <point x="670" y="1350" type="curve" smooth="yes"/>
      <point x="306" y="1350"/>
      <point x="137" y="1061"/>
      <point x="137" y="742" type="curve" smooth="yes"/>
      <point x="137" y="410"/>
      <point x="314" y="146"/>
    </contour>
    <contour>
      <point x="430" y="851" type="line"/>
      <point x="430" y="1123" type="line"/>
      <point x="482" y="1177"/>
      <point x="568" y="1210"/>
      <point x="671" y="1210" type="curve" smooth="yes"/>
      <point x="759" y="1210"/>
      <point x="824" y="1183"/>
      <point x="869" y="1137" type="curve"/>
      <point x="869" y="851" type="line"/>
    </contour>
  </outline>
</glyph>
<glyph name="minus" format="1">
  <advance width="782"/>
  <unicode hex="2212"/>
  <outline>
    <contour>
      <point x="50" y="471" type="line"/>
      <point x="732" y="471" type="line"/>
      <point x="732" y="759" type="line"/>
      <point x="50" y="759" type="line"/>
    </contour>
  </outline>
</glyph>
<glyph name="lessequal" format="1">
  <advance width="1541"/>
  <unicode hex="2264"/>
  <outline>
    <contour>
      <point x="1221" y="373" type="line"/>
      <point x="1356" y="640" type="line"/>
      <point x="723" y="953" type="line"/>
      <point x="1356" y="1266" type="line"/>
      <point x="1221" y="1533" type="line"/>
      <point x="109" y="953" type="line"/>
    </contour>
    <contour>
      <point x="163" y="0" type="line"/>
      <point x="1305" y="0" type="line"/>
      <point x="1305" y="231" type="line"/>
      <point x="163" y="231" type="line"/>
    </contour>
  </outline>
</glyph>
<glyph name="lozenge" format="1">
  <advance width="1449"/>
  <unicode hex="25CA"/>
  <outline>
    <contour>
      <point x="724" y="238" type="line"/>
      <point x="419" y="583" type="line"/>
      <point x="725" y="930" type="line"/>
      <point x="1030" y="585" type="line"/>
    </contour>
    <contour>
      <point x="724" y="-68" type="line"/>
      <point x="1337" y="585" type="line"/>
      <point x="725" y="1236" type="line"/>
      <point x="112" y="583" type="line"/>
    </contour>
  </outline>
</glyph>
<glyph name="caron.alt" format="1">
  <advance width="600"/>
  <outline>
    <component base="comma" yOffset="1576"/>
    <contour>
      <point x="30" y="1162" type="move" name="_caron.alt"/>
    </contour>
  </outline>
</glyph>
